<svg width="64" height="64" viewBox="0 0 64 64" fill="none" xmlns="http://www.w3.org/2000/svg">
<g clip-path="url(#clip0_37_107)">
<path d="M54.9 39.7002L62.2 47.3002L30.1 63.4002C30.1 63.4002 25.9 65.5002 23.9 62.2002C15.9 49.2002 54.9 39.7002 54.9 39.7002Z" fill="#256382"/>
<path d="M29.2001 53.8998C29.2001 53.8998 23.1001 56.1998 24.2001 60.4998C25.4001 64.9998 30.3001 62.2998 30.3001 62.2998L60.8001 47.2998C60.8001 47.2998 59.1001 42.4998 62.2001 39.2998L29.2001 53.8998Z" fill="#D9E3E8"/>
<path d="M34.4 8.90039L63.6 39.0004L29.1 53.3004L7 16.7004L34.4 8.90039Z" fill="#42ADE2"/>
<path d="M60.6999 42.6002L40.2999 51.4002L60.2999 41.7002L60.6999 42.6002ZM60.3999 45.2002L38.6999 54.7002L59.9999 44.3002L60.3999 45.2002ZM60.5999 46.7002L32.8999 59.4002L60.1999 45.8002L60.5999 46.7002Z" fill="#94989B"/>
<path d="M23.8 62.1003C20.4 54.6003 29.1 53.3003 29.1 53.3003L7 16.7003C7 16.7003 2 16.6003 2 22.1003C2 24.4003 3 26.1003 3 26.1003L23.8 62.1003Z" fill="#428BC1"/>
<path d="M8.6999 32.2002L1.3999 39.8002L33.4999 55.9002C33.4999 55.9002 37.6999 58.0002 39.6999 54.7002C47.6999 41.7002 8.6999 32.2002 8.6999 32.2002Z" fill="#547725"/>
<path d="M34.2999 46.3998C34.2999 46.3998 40.3999 48.6998 39.2999 52.9998C38.0999 57.4998 33.2999 54.7998 33.2999 54.7998L2.7999 39.7998C2.7999 39.7998 4.4999 34.9998 1.3999 31.7998L34.2999 46.3998Z" fill="#D9E3E8"/>
<path d="M29.2 1.40039L0 31.5004L34.5 45.8004L56.6 9.20039L29.2 1.40039Z" fill="#83BF4F"/>
<path d="M3.1998 34.2002L23.1998 43.9002L2.7998 35.1002L3.1998 34.2002ZM3.5998 36.8002L24.7998 47.2002L3.0998 37.7002L3.5998 36.8002ZM3.3998 38.3002L30.5998 51.9002L2.8998 39.2002L3.3998 38.3002Z" fill="#94989B"/>
<path d="M39.8 54.6003C43.2 47.1003 34.5 45.8003 34.5 45.8003L56.6 9.20032C56.6 9.20032 61.6 9.10032 61.6 14.6003C61.6 16.9003 60.6 18.6003 60.6 18.6003L39.8 54.6003Z" fill="#699635"/>
<path d="M56.7 26L62.8 32.4L35.7 45.9C35.7 45.9 32.1 47.6 30.4 44.9C23.8 34 56.7 26 56.7 26Z" fill="#962C2C"/>
<path d="M35.0001 38.0002C35.0001 38.0002 29.8001 39.9002 30.8001 43.6002C31.8001 47.4002 35.9001 45.1002 35.9001 45.1002L61.6001 32.4002C61.6001 32.4002 60.2001 28.4002 62.8001 25.7002L35.0001 38.0002Z" fill="#D9E3E8"/>
<path d="M39.4002 0L64.0002 25.4L34.9002 37.5L16.2002 6.6L39.4002 0Z" fill="#ED4C5C"/>
<path d="M40.1 5.7998L44.9 11.0998L27.2 17.7998L23 10.9998L40.1 5.7998Z" fill="white"/>
<path d="M61.6002 28.4996L44.4002 35.7996L61.2002 27.5996L61.6002 28.4996ZM61.4002 30.6996L43.0002 38.5996L61.0002 29.7996L61.4002 30.6996ZM61.6002 31.8996L38.2002 42.5996L61.1002 30.9996L61.6002 31.8996Z" fill="#94989B"/>
<path d="M30.4999 44.8998C27.6999 38.5998 34.9999 37.4998 34.9999 37.4998L16.1999 6.59978C16.1999 6.59978 11.8999 6.49978 11.8999 11.0998C11.8999 12.9998 12.6999 14.4998 12.6999 14.4998L30.4999 44.8998Z" fill="#C94747"/>
</g>
<defs>
<clipPath id="clip0_37_107">
<rect width="64" height="64" fill="white"/>
</clipPath>
</defs>
</svg>
