<svg width="64" height="64" viewBox="0 0 64 64" fill="none" xmlns="http://www.w3.org/2000/svg">
<g clip-path="url(#clip0_55_77)">
<path d="M7.93408 41.1321L39.8281 9.24609L54.7461 24.1681L22.8511 56.0541L7.93408 41.1321Z" fill="#FFCE31"/>
<path d="M61.2998 4.6L59.3998 2.7C55.7998 -0.9 49.9998 -0.9 46.2998 2.7L39.7998 9.2L54.7998 24.2L61.2998 17.7C64.8998 14.1 64.8998 8.2 61.2998 4.6Z" fill="#ED4C5C"/>
<path d="M35.7822 13.31L39.8822 9.20801L54.8022 24.128L50.7022 28.229L35.7822 13.31Z" fill="#93A2AA"/>
<path d="M37.3379 14.8647L41.4379 10.7637L53.1769 22.5017L49.0749 26.6017L37.3379 14.8647Z" fill="#C7D3D8"/>
<path d="M7.8999 41.0996L1.3999 58.0996L5.8999 62.5996L22.8999 56.0996L7.8999 41.0996Z" fill="#FED0AC"/>
<path d="M0.299791 61.1004C-0.600209 63.5004 0.599791 64.6004 2.99979 63.7004L11.1998 60.6004L3.49979 52.9004L0.299791 61.1004Z" fill="#333333"/>
<path d="M7.89014 41.1754L35.7501 13.3154L40.7001 18.2654L12.8401 46.1254L7.89014 41.1754Z" fill="#FFDF85"/>
<path d="M17.9038 51.1422L45.7638 23.2822L50.7138 28.2322L22.8538 56.0922L17.9038 51.1422Z" fill="#FF8736"/>
</g>
<defs>
<clipPath id="clip0_55_77">
<rect width="64" height="64" fill="white"/>
</clipPath>
</defs>
</svg>
