<svg width="24" height="24" viewBox="0 0 24 24" fill="none" xmlns="http://www.w3.org/2000/svg">
<path d="M9 13H15V21H9V13Z" fill="url(#paint0_linear_61_74)"/>
<path d="M13.45 4.53344C13.0442 4.19146 12.5307 4.00391 12 4.00391C11.4693 4.00391 10.9558 4.19146 10.55 4.53344L3.8 10.2284C3.54946 10.4396 3.34806 10.7029 3.20988 11C3.0717 11.2971 3.00007 11.6208 3 11.9484V19.2534C3 20.2194 3.784 21.0034 4.75 21.0034H9.5V15.2504C9.5 14.5704 10.042 14.0184 10.717 14.0004H13.283C13.6088 14.009 13.9183 14.1445 14.1456 14.378C14.373 14.6115 14.5001 14.9246 14.5 15.2504V21.0034H19.25C19.7141 21.0034 20.1592 20.8191 20.4874 20.4909C20.8156 20.1627 21 19.7176 21 19.2534V11.9484C20.9999 11.6208 20.9283 11.2971 20.7901 11C20.6519 10.7029 20.4505 10.4396 20.2 10.2284L13.45 4.53344Z" fill="url(#paint1_linear_61_74)"/>
<path fill-rule="evenodd" clip-rule="evenodd" d="M12.8039 2.29915C12.5804 2.10618 12.2951 2 11.9999 2C11.7046 2 11.4193 2.10618 11.1959 2.29915L2.40686 9.92915C2.28833 10.0309 2.19143 10.1554 2.12192 10.2953C2.0524 10.4352 2.01168 10.5876 2.00217 10.7436C1.99265 10.8995 2.01454 11.0557 2.06654 11.2031C2.11854 11.3504 2.19958 11.4857 2.30486 11.6011C2.52102 11.8371 2.82062 11.9795 3.14008 11.9982C3.45954 12.0169 3.77369 11.9103 4.01586 11.7011L11.9999 4.77115L19.9839 11.7011C20.4839 12.1361 21.2499 12.0911 21.6939 11.6011C21.7994 11.4858 21.8806 11.3504 21.9328 11.203C21.9849 11.0557 22.007 10.8993 21.9976 10.7433C21.9881 10.5872 21.9475 10.4347 21.8779 10.2946C21.8084 10.1546 21.7115 10.03 21.5929 9.92815L12.8039 2.29915Z" fill="url(#paint2_linear_61_74)"/>
<path fill-rule="evenodd" clip-rule="evenodd" d="M11.1958 2.29915C11.4192 2.10618 11.7046 2 11.9998 2C12.295 2 12.5804 2.10618 12.8038 2.29915L21.5928 9.92915C22.0928 10.3631 22.1388 11.1121 21.6948 11.6011C21.4787 11.8371 21.1791 11.9795 20.8596 11.9982C20.5401 12.0169 20.226 11.9103 19.9838 11.7011L11.9998 4.77115L4.01581 11.7001C3.7737 11.909 3.45976 12.0154 3.14055 11.9967C2.82133 11.9781 2.52193 11.8358 2.30581 11.6001C2.20031 11.4848 2.11907 11.3494 2.0669 11.202C2.01473 11.0547 1.9927 10.8983 2.00212 10.7423C2.01154 10.5862 2.05222 10.4337 2.12174 10.2936C2.19126 10.1536 2.2882 10.029 2.40681 9.92715L11.1958 2.29915Z" fill="url(#paint3_linear_61_74)"/>
<defs>
<linearGradient id="paint0_linear_61_74" x1="12" y1="13" x2="6.707" y2="21.825" gradientUnits="userSpaceOnUse">
<stop stop-color="#944600"/>
<stop offset="1" stop-color="#CD8E02"/>
</linearGradient>
<linearGradient id="paint1_linear_61_74" x1="4.718" y1="3.17244" x2="21.568" y2="17.6734" gradientUnits="userSpaceOnUse">
<stop stop-color="#FFD394"/>
<stop offset="1" stop-color="#FFB357"/>
</linearGradient>
<linearGradient id="paint2_linear_61_74" x1="8.76786" y1="-0.374851" x2="13.1619" y2="11.5051" gradientUnits="userSpaceOnUse">
<stop stop-color="#FF921F"/>
<stop offset="1" stop-color="#EB4824"/>
</linearGradient>
<linearGradient id="paint3_linear_61_74" x1="8.76782" y1="-0.374851" x2="13.1618" y2="11.5051" gradientUnits="userSpaceOnUse">
<stop stop-color="#FF921F"/>
<stop offset="1" stop-color="#EB4824"/>
</linearGradient>
</defs>
</svg>
