<svg width="128" height="128" viewBox="0 0 128 128" fill="none" xmlns="http://www.w3.org/2000/svg">
<path d="M64 4.5C36.2 4.5 8 28.1 8 55.8C8 83.5 52.3 123.5 64.2 123.5C77.4 123.5 120 83.6 120 55.8C120 28 91.8 4.5 64 4.5Z" fill="#ADBCC3"/>
<path d="M64.0002 102.35C54.6302 102.35 47.9402 96.8298 45.9302 93.7698C45.1702 92.7898 45.0102 91.4598 45.5202 90.3298C45.9102 89.5898 46.6902 89.1498 47.5202 89.1798C47.8202 89.1798 48.1202 89.2298 48.4002 89.3298C53.1002 90.7998 57.2302 92.9998 64.0002 92.9998C70.7702 92.9998 74.9202 90.8398 79.6302 89.3698C79.9102 89.2698 80.2102 89.2198 80.5102 89.2198C81.3402 89.1898 82.1202 89.6298 82.5102 90.3698C83.0202 91.4998 82.8602 92.8298 82.1002 93.8098C80.0602 96.8298 73.3702 102.35 64.0002 102.35ZM54.0502 81.5598C51.0502 85.4398 36.3402 85.4498 25.2002 75.1998C15.1102 65.9198 15.7402 49.5598 19.0702 46.2598C22.4002 42.9598 38.2602 42.8798 47.9202 52.6198C57.5802 62.3598 57.7202 77.9198 54.0502 81.5598ZM80.0802 52.5798C89.7402 42.8798 105.6 42.9598 108.93 46.2498C112.26 49.5398 112.46 65.3598 102.8 75.0498C93.1402 84.7398 77.6402 84.9998 73.9402 81.3798C70.2402 77.7598 70.4202 62.2798 80.0802 52.5798Z" fill="#422B0D"/>
<path d="M64.0002 4.5C78.5202 4.5 93.1302 10.92 103.8 21C93.0002 9.46 77.1702 2 61.4702 2C33.6702 2 5.47021 25.6 5.47021 53.3C5.47021 68.9 19.5302 88.41 33.9402 102.48C20.4602 88.64 8.00022 70.49 8.00022 55.8C8.00022 28.1 36.2002 4.5 64.0002 4.5Z" fill="#ADBCC3"/>
</svg>
