<svg width="128" height="128" viewBox="0 0 128 128" fill="none" xmlns="http://www.w3.org/2000/svg">
<g clip-path="url(#clip0_39_144)">
<path d="M63.8801 3.3998C62.5101 3.2898 60.6701 3.3498 59.1001 5.3598L5.31012 80.1198C5.31012 80.1198 -0.269876 86.6798 7.40012 90.8198L70.8101 123.66C70.8101 123.66 75.4601 126.95 79.1901 121.43C82.7001 116.25 120.33 38.0598 122.86 32.3398C124.54 28.5298 126.41 25.7798 121.53 23.4298C117.47 21.4698 68.1001 3.7298 63.8801 3.3998" fill="#ED6C30"/>
<mask id="mask0_39_144" style="mask-type:luminance" maskUnits="userSpaceOnUse" x="3" y="3" width="122" height="122">
<path d="M63.8801 3.3998C62.5101 3.2898 60.6701 3.3498 59.1001 5.3598L5.31012 80.1198C5.31012 80.1198 -0.269876 86.6798 7.40012 90.8198L70.8101 123.66C70.8101 123.66 75.4601 126.95 79.1901 121.43C82.7001 116.25 120.33 38.0598 122.86 32.3398C124.54 28.5298 126.41 25.7798 121.53 23.4298C117.47 21.4698 68.1001 3.7298 63.8801 3.3998" fill="white"/>
</mask>
<g mask="url(#mask0_39_144)">
<path d="M29.2601 47.6901C29.9101 46.7301 33.7201 46.9801 34.6901 46.9301C44.4501 46.3801 54.3701 47.9401 63.3201 51.9301C76.2001 57.6701 85.9601 69.3801 91.5401 82.1301C92.4601 84.2301 95.4901 90.1401 94.7501 92.4401C94.5001 93.2201 93.8801 93.9001 93.5101 94.6201C92.8301 95.9201 92.1901 97.3701 91.6701 98.7301C91.0201 100.42 90.0301 101.95 89.3101 103.61C88.5501 105.39 87.6901 107.15 86.9601 108.94C86.6301 109.75 86.5301 110.59 86.0801 111.35C85.6801 112.03 85.3301 112.71 84.9301 113.39C84.1001 114.83 83.3001 116.25 82.5201 117.72C81.3901 119.86 80.3101 122.13 78.8901 124.06C78.2201 124.96 77.5301 124.92 76.4901 124.9C74.6601 124.86 72.5601 124.17 70.8001 123.66C67.2301 122.62 64.2601 119.85 61.0301 118.27C59.2801 117.42 57.5701 116.3 55.8501 115.37C53.6301 114.16 51.4801 112.85 49.2201 111.73C47.4202 110.84 45.4501 110.1 43.8201 108.93C42.5701 108.03 41.3201 107.12 40.0301 106.3C37.2401 104.51 34.7601 102.94 31.4401 102.4C29.8901 102.14 28.7201 101.34 27.3601 100.61C25.7001 99.7201 24.1001 98.7701 22.4801 97.8001C21.4001 97.1601 20.2401 96.7501 19.1401 96.1801C18.0501 95.6101 17.0701 94.8101 15.9101 94.3601C14.6601 93.8801 13.6101 93.5701 12.4601 92.8301C11.4101 92.1501 10.3101 91.5001 9.27015 90.7901C7.72015 89.7201 6.27015 89.0701 5.35015 87.3801C5.08015 86.8801 4.90015 86.8201 4.44015 86.3801C4.13015 86.0801 3.92015 85.7501 3.84015 85.3201C3.68015 84.4501 4.16015 83.5201 4.57015 82.8001C5.08015 81.8901 5.68015 80.9801 6.33015 80.1601C6.93015 79.4001 7.38015 78.4501 8.13015 77.8201C14.2801 69.0501 20.4201 60.2801 26.5901 51.5201C27.4901 50.2601 28.4001 49.0001 29.2601 47.6901Z" fill="#2F2F2F"/>
</g>
<path d="M74.0499 127.49C71.7399 127.49 69.9999 126.53 69.3699 126.13L6.07987 93.36C2.20987 91.27 0.979872 88.58 0.629872 86.69C-0.190128 82.32 2.77987 78.67 3.11987 78.26L56.7899 3.68C58.4499 1.54 60.5799 0.5 63.1599 0.5C63.4899 0.5 63.8099 0.51 64.1099 0.54C69.2899 0.95 120.04 19.52 122.79 20.84C129.74 24.19 127.36 29.38 125.94 32.49L125.49 33.49C123.34 38.36 85.4399 117.32 81.5699 123.03C79.0799 126.72 76.0999 127.49 74.0499 127.49ZM72.4599 121.33C72.4599 121.33 73.1799 121.78 74.0499 121.78C74.4199 121.78 75.5299 121.78 76.8399 119.83C79.9699 115.2 117.11 38.3 120.26 31.19L120.74 30.12C122.21 26.93 122.21 26.93 120.3 26.01C115.56 23.72 67.4299 6.68 63.6399 6.25C63.4999 6.24 63.3199 6.23 63.1499 6.23C62.4499 6.23 61.9299 6.38 61.3499 7.12L7.62987 81.79C7.05987 82.5 5.96987 84.21 6.24987 85.66C6.43987 86.62 7.27987 87.51 8.75987 88.31L72.1299 121.13C72.2399 121.19 72.3599 121.25 72.4599 121.33Z" fill="#2F2F2F"/>
<g clip-path="url(#clip1_39_144)">
<path d="M43.7002 6.56478C42.4286 6.80545 40.7732 7.31906 39.8534 9.55241L9.82487 91.4721C9.82487 91.4721 6.40907 98.8747 14.4144 100.757L80.2479 115.048C80.2479 115.048 85.2975 116.904 87.2953 110.915C89.1789 105.293 103.672 24.2581 104.53 18.3855C105.097 14.4751 106.103 11.4889 101.081 10.5516C96.9019 9.76734 47.6146 5.81536 43.7002 6.56478" fill="#ED6C30"/>
<g filter="url(#filter0_d_39_144)">
<path d="M84.0448 117.098C81.9336 117.678 80.1024 117.237 79.4262 117.029L13.3579 102.951C9.29641 102.012 7.49714 99.8611 6.70292 98.2211C4.85674 94.4318 6.65513 90.3498 6.86297 89.8897L37.1973 8.24336C38.1773 5.8705 39.8631 4.38531 42.221 3.73797C42.5227 3.65517 42.8176 3.58403 43.0993 3.53618C47.9365 2.6113 98.98 6.85432 101.825 7.37106C109.017 8.68979 108.145 14.0316 107.627 17.231L107.467 18.2581C106.724 23.2497 91.9023 104.943 89.7984 111.134C88.4487 115.132 85.9184 116.584 84.0448 117.098ZM81.0456 111.866C81.0456 111.866 81.8166 112.097 82.6118 111.878C82.9499 111.786 83.9644 111.507 84.6723 109.396C86.371 104.378 101.015 24.7579 102.11 17.4677L102.28 16.3691C102.823 13.084 102.823 13.084 100.846 12.7222C95.9396 11.818 47.6746 8.31629 44.1028 8.87412C43.9724 8.90011 43.8053 8.93613 43.65 8.97878C43.0102 9.15442 42.5726 9.42202 42.2282 10.244L11.8708 91.9852C11.5281 92.7773 10.961 94.614 11.5808 95.8694C11.9954 96.6993 12.9865 97.3022 14.5399 97.6622L80.6938 111.766C80.8094 111.793 80.9342 111.818 81.0456 111.866Z" fill="#2F2F2F"/>
</g>
<mask id="mask1_39_144" style="mask-type:luminance" maskUnits="userSpaceOnUse" x="9" y="6" width="97" height="109">
<path d="M44.0388 6.87079C42.7642 7.11302 41.1043 7.62746 40.1774 9.84952L9.89515 91.3459C9.89515 91.3459 6.45504 98.7119 14.4716 100.564L80.4006 114.612C80.4006 114.612 85.4557 116.444 87.4716 110.487C89.3723 104.895 104.087 24.3147 104.961 18.4756C105.538 14.5875 106.553 11.6168 101.523 10.6972C97.3376 9.92757 47.9628 6.11659 44.0388 6.87079" fill="white"/>
</mask>
<g mask="url(#mask1_39_144)">
<path d="M23.5927 55.8407C23.9445 54.8044 27.4752 54.0799 28.3457 53.7919C37.0928 50.8522 46.5128 49.7932 55.6571 51.1887C68.8162 53.1951 80.6271 61.4156 88.8929 71.6275C90.2551 73.3092 94.4903 77.9319 94.3914 80.2105C94.3588 80.983 93.9643 81.7569 93.8075 82.5048C93.5133 83.8581 93.2931 85.338 93.1596 86.706C92.9903 88.4068 92.4714 90.047 92.2308 91.738C91.9838 93.5483 91.6408 95.3653 91.4236 97.1772C91.3256 97.997 91.4445 98.7866 91.2248 99.5909C91.0306 100.31 90.882 101.016 90.6878 101.735C90.2921 103.254 89.9187 104.746 89.576 106.279C89.0822 108.51 88.6663 110.846 87.856 112.958C87.471 113.944 86.8329 114.08 85.8812 114.322C84.2054 114.743 82.1213 114.64 80.3917 114.615C76.8821 114.561 73.4863 112.781 70.1511 112.15C68.3457 111.814 66.5092 111.222 64.7111 110.805C62.3878 110.258 60.1033 109.603 57.7661 109.148C55.9052 108.788 53.9269 108.607 52.1508 107.949C50.788 107.442 49.4227 106.926 48.0435 106.502C45.0564 105.57 42.4065 104.76 39.2494 105.098C37.7734 105.249 36.5085 104.813 35.088 104.489C33.3545 104.093 31.6606 103.628 29.9435 103.15C28.8005 102.838 27.6421 102.754 26.4983 102.51C25.3636 102.264 24.2716 101.78 23.1032 101.661C21.8454 101.536 20.8121 101.516 19.5803 101.13C18.4546 100.773 17.2908 100.457 16.1666 100.07C14.4883 99.4836 13.0059 99.2542 11.7461 97.9458C11.3754 97.5581 11.1965 97.5484 10.6678 97.2629C10.3107 97.0672 10.037 96.8193 9.85674 96.4479C9.49368 95.6959 9.69821 94.7294 9.89151 93.9715C10.1283 93.0157 10.4471 92.0374 10.8339 91.1285C11.1901 90.2867 11.3624 89.3095 11.8877 88.5485C15.2943 79.0283 18.6919 69.5106 22.1193 59.9944C22.6237 58.6225 23.1372 57.2482 23.5927 55.8407Z" fill="#2F2F2F"/>
</g>
</g>
</g>
<defs>
<filter id="filter0_d_39_144" x="1.57793" y="-0.894727" width="112.684" height="124.58" filterUnits="userSpaceOnUse" color-interpolation-filters="sRGB">
<feFlood flood-opacity="0" result="BackgroundImageFix"/>
<feColorMatrix in="SourceAlpha" type="matrix" values="0 0 0 0 0 0 0 0 0 0 0 0 0 0 0 0 0 0 127 0" result="hardAlpha"/>
<feOffset dx="1" dy="1"/>
<feGaussianBlur stdDeviation="2.65"/>
<feComposite in2="hardAlpha" operator="out"/>
<feColorMatrix type="matrix" values="0 0 0 0 1 0 0 0 0 1 0 0 0 0 1 0 0 0 0.42 0"/>
<feBlend mode="normal" in2="BackgroundImageFix" result="effect1_dropShadow_39_144"/>
<feBlend mode="normal" in="SourceGraphic" in2="effect1_dropShadow_39_144" result="shape"/>
</filter>
<clipPath id="clip0_39_144">
<rect width="128" height="128" fill="white"/>
</clipPath>
<clipPath id="clip1_39_144">
<rect width="131.707" height="131.707" fill="white" transform="translate(-21.3818 15.8633) rotate(-15.3512)"/>
</clipPath>
</defs>
</svg>
