<svg width="128" height="128" viewBox="0 0 128 128" fill="none" xmlns="http://www.w3.org/2000/svg">
<path d="M116.46 3.95996H12.46C8.03996 3.95996 4.45996 7.53996 4.45996 11.96V115.96C4.45996 120.38 8.03996 123.96 12.46 123.96H116.46C120.88 123.96 124.46 120.38 124.46 115.96V11.96C124.46 7.53996 120.88 3.95996 116.46 3.95996Z" fill="#689F38"/>
<path d="M110.16 3.95996H11.96C9.97531 3.97436 8.07601 4.76916 6.67259 6.17257C5.26918 7.57598 4.47438 9.47529 4.45998 11.46V109.36C4.44998 113.5 7.79998 116.85 11.94 116.86H110.06C114.2 116.87 117.55 113.52 117.56 109.38V11.46C117.65 7.40996 114.43 4.04996 110.38 3.95996H110.16Z" fill="#7CB342"/>
<path opacity="0.3" d="M40.1601 12.8603C40.1601 10.5603 38.5601 9.86033 29.3601 10.1603C21.6601 10.4603 17.8601 11.3603 15.5601 14.1603C13.2601 16.9603 12.6601 22.6603 12.5601 29.4603C12.5601 34.2603 12.5601 38.7603 15.0601 38.7603C18.4601 38.7603 18.4601 30.8603 21.2601 26.4603C26.6601 17.7603 40.1601 15.8603 40.1601 12.8603Z" fill="white"/>
<path d="M43.2598 109.46C41.3326 109.513 39.4404 108.937 37.8703 107.818C36.3002 106.699 35.1379 105.099 34.5598 103.26L19.4598 57.7596C17.9998 52.9496 20.7198 47.8596 25.5298 46.3996C30.1798 44.9896 35.1198 47.4796 36.7598 52.0596L46.5598 81.5596L93.6598 21.9596C96.7798 18.0096 102.51 17.3396 106.46 20.4596C110.41 23.5796 111.08 29.3096 107.96 33.2596L50.3598 105.96C49.5169 107.041 48.4403 107.917 47.2108 108.523C45.9813 109.129 44.6306 109.449 43.2598 109.46Z" fill="#FBF9F9"/>
</svg>
